<svg width="53" height="52" viewBox="0 0 53 52" fill="none" xmlns="http://www.w3.org/2000/svg">
<rect x="0.986762" y="0.652778" width="50.6944" height="50.6944" rx="25.3472" stroke="#232323" stroke-width="1.30556"/>
<path d="M26.3337 14.333C32.7769 14.333 38.0003 19.5563 38.0003 25.9997C38.0003 32.4429 32.7769 37.6663 26.3337 37.6663C19.8903 37.6663 14.667 32.4429 14.667 25.9997C14.667 19.5563 19.8903 14.333 26.3337 14.333ZM31.0053 27.0237C30.6024 26.4119 30.3116 25.97 29.2062 26.1453C27.1173 26.4768 26.8857 26.8425 26.786 27.4434L26.7579 27.6264L26.7295 27.8193C26.6155 28.6163 26.6198 28.9177 26.9857 29.3023C28.4618 30.8509 29.346 31.9672 29.6139 32.62C29.7446 32.9395 30.0809 33.904 29.8495 34.8578C31.2771 34.2907 32.5352 33.3884 33.5265 32.2482C33.6551 31.8121 33.7479 31.269 33.7479 30.6101V30.4881C33.7479 29.4118 33.7479 28.921 32.9873 28.4863C32.6663 28.304 32.4268 28.1942 32.2349 28.1071C31.8065 27.9123 31.5229 27.7843 31.1401 27.2246C31.0945 27.1579 31.0499 27.0914 31.0053 27.0237ZM26.3337 16.4719C23.63 16.4719 21.1894 17.598 19.4552 19.4068C19.6617 19.5502 19.8416 19.7516 19.9652 20.0293C20.2032 20.5633 20.2032 21.1127 20.2032 21.5986C20.2027 21.9819 20.2021 22.3447 20.3252 22.6082C20.4938 22.9679 21.2195 23.1207 21.8601 23.2549C22.0889 23.3031 22.3249 23.3523 22.5396 23.4117C23.13 23.5757 23.5868 24.1056 23.9529 24.5311C24.1049 24.7083 24.3292 24.9687 24.4417 25.0333C24.5004 24.9912 24.6887 24.7873 24.7819 24.4521C24.8528 24.1968 24.8326 23.9693 24.7282 23.8464C24.0759 23.0765 24.1114 21.5934 24.313 21.0471C24.6306 20.1851 25.6226 20.2487 26.3477 20.2958C26.6181 20.3132 26.8734 20.3299 27.0636 20.3061C27.7899 20.2149 28.0132 19.111 28.1712 18.8947C28.5119 18.4278 29.5545 17.7246 30.2021 17.29C29.0199 16.7641 27.7109 16.4719 26.3337 16.4719Z" fill="#F5F5F5"/>
</svg>
